<svg width="48" height="48" viewBox="0 0 48 48" xmlns="http://www.w3.org/2000/svg" xmlns:xlink="http://www.w3.org/1999/xlink">
    <defs>
        <rect id="a" x="0" y="0" width="48" height="48" rx="8"/>
    </defs>
    <g fill="none" fill-rule="evenodd">
        <rect fill="#D4D5D9" width="48" height="48" rx="12"/>
        <mask id="b" fill="#fff">
            <use xlink:href="#a"/>
        </mask>
        <path d="M31.459 39.41c1.7-.836 3.243-1.94 4.574-3.259l5.03 5.03h-9.604V39.41zm-7.543 1.77v-.002a17.24 17.24 0 0 0 7.375-1.686v1.688h-7.375zm-7.542 0v-1.688a17.24 17.24 0 0 0 7.375 1.686v.002h-7.375zm-9.771 0 5.029-5.029a17.437 17.437 0 0 0 4.574 3.259v1.77H6.603zm1.652-9.721c.835 1.699 1.94 3.242 3.258 4.574l-5.029 5.03v-9.604h1.771zm-1.77-7.543h.001a17.24 17.24 0 0 0 1.687 7.375H6.484v-7.375zm0-7.543h1.688a17.24 17.24 0 0 0-1.687 7.375h-.002v-7.375zm0-9.77 5.028 5.028a17.437 17.437 0 0 0-3.258 4.575h-1.77V6.603zm9.72 1.652a17.437 17.437 0 0 0-4.573 3.258L6.603 6.484h9.603v1.77zm7.544-1.771v.002a17.245 17.245 0 0 0-7.375 1.686V6.484h7.375zm7.542 0v1.688a17.245 17.245 0 0 0-7.375-1.686v-.002h7.375zm9.771 0-5.029 5.03a17.432 17.432 0 0 0-4.574-3.26v-1.77h9.603zm-1.652 9.722a17.429 17.429 0 0 0-3.258-4.575l5.028-5.028v9.603h-1.77zm1.77 7.542h-.002a17.24 17.24 0 0 0-1.685-7.375h1.687v7.375zm0 7.543h-1.687a17.239 17.239 0 0 0 1.685-7.375h.002v7.375zm-9.602.168h7.643a17.25 17.25 0 0 1-3.188 4.455l-4.455-4.455zm-.12.118 4.457 4.456a17.264 17.264 0 0 1-4.456 3.188v-7.644zm-7.542 3.064a10.77 10.77 0 0 0 7.375-2.994v7.66a17.075 17.075 0 0 1-7.375 1.704v-6.37zm-7.542-2.994a10.77 10.77 0 0 0 7.375 2.994v6.37a17.075 17.075 0 0 1-7.375-1.703v-7.66zm-.168-.07v7.644a17.263 17.263 0 0 1-4.456-3.188l4.456-4.456zm-.118-.118-4.456 4.455a17.257 17.257 0 0 1-3.189-4.455h7.645zm-3.065-7.543a10.77 10.77 0 0 0 2.995 7.375h-7.66a17.076 17.076 0 0 1-1.704-7.375h6.37zm2.995-7.543a10.77 10.77 0 0 0-2.995 7.375h-6.37c.014-2.64.623-5.141 1.705-7.375h7.66zm.07-.167H8.443a17.263 17.263 0 0 1 3.189-4.456l4.456 4.456zm.118-.119-4.456-4.456a17.263 17.263 0 0 1 4.456-3.188v7.644zm7.543-3.064a10.77 10.77 0 0 0-7.375 2.994v-7.66a17.07 17.07 0 0 1 7.375-1.703v6.369zm7.542 2.994a10.77 10.77 0 0 0-7.375-2.994v-6.37a17.07 17.07 0 0 1 7.375 1.704v7.66zm.168.07V8.443a17.264 17.264 0 0 1 4.456 3.188l-4.456 4.456zm.119.119 4.455-4.456a17.263 17.263 0 0 1 3.188 4.456h-7.643zm3.063 7.542a10.77 10.77 0 0 0-2.994-7.375h7.66a17.076 17.076 0 0 1 1.704 7.375h-6.37zm0 .168h6.37a17.076 17.076 0 0 1-1.703 7.375h-7.66a10.77 10.77 0 0 0 2.993-7.375zm-10.725 7.543h7.33a10.604 10.604 0 0 1-7.33 3.015v-3.015zm-.167 0v3.015a10.604 10.604 0 0 1-7.33-3.015h7.33zm-7.543-7.543v7.33a10.607 10.607 0 0 1-3.015-7.33h3.015zm0-.168H13.19a10.607 10.607 0 0 1 3.015-7.33v7.33zm7.543-7.542h-7.33a10.607 10.607 0 0 1 7.33-3.015v3.015zm.167 0V13.19a10.607 10.607 0 0 1 7.33 3.015h-7.33zm7.543 7.542v-7.33a10.604 10.604 0 0 1 3.015 7.33h-3.015zm0 .168h3.015a10.605 10.605 0 0 1-3.015 7.33v-7.33zm-7.543.118 7.257 7.257h-7.257v-7.257zm-.167 0v7.257h-7.257l7.257-7.256zm-.119-.118-7.256 7.257v-7.257h7.256zm0-.168h-7.256v-7.256l7.256 7.256zm.119-.118-7.257-7.257h7.257v7.257zm.167 0v-7.257h7.257l-7.257 7.257zm7.375.286v7.256l-7.256-7.256h7.256zm-7.256-.168 7.256-7.256v7.256h-7.256zM41.18 41.062l-5.028-5.029a17.423 17.423 0 0 0 3.258-4.574h1.77v9.603zm3.22 3.22-2.933-2.934h2.563v-.168h-2.682V31.46h2.682v-.168h-2.682v-7.375h2.682v-.168h-2.682v-7.375h2.682v-.167h-2.682V6.484h2.682v-.168h-2.563l2.598-2.598-.119-.118-2.598 2.598V3.635h-.168v2.681H31.46V3.635h-.168v2.681h-7.375V3.635h-.167v2.681h-7.375V3.635h-.168v2.681H6.484V3.635h-.167v2.563L3.719 3.6l-.119.118 2.598 2.598H3.635v.168h2.682v9.722H3.635v.167h2.682v7.375H3.635v.168h2.682v7.375H3.635v.168h2.682v9.721H3.635v.168h2.563L3.6 43.946l.119.119 2.598-2.598v2.563h.167v-2.682h9.722v2.682h.168v-2.682h7.375v2.682h.167v-2.682h7.375v2.682h.168v-2.682h9.721v2.682h.168v-2.563l2.933 2.933.119-.119z" stroke="#FFF" stroke-width=".5" opacity=".8" mask="url(#b)"/>
    </g>
</svg>
